<svg xmlns="http://www.w3.org/2000/svg" width="256.05" height="75.808" viewBox="0 0 256.05 75.808"><defs><style>.a{fill:#161615;}.b{fill:#0080c2;}</style></defs><g transform="translate(-75.588 -91.502)"><g transform="translate(10213.31 7983.807)"><g transform="translate(-10050.487 -7891.112)"><path class="a" d="M195.482,359.889V347.262h6.075a5.651,5.651,0,0,1,1.964.285,2.5,2.5,0,0,1,1.156.826,3.162,3.162,0,0,1,.551,1.331,11.051,11.051,0,0,1,.009,3.533,3.365,3.365,0,0,1-.533,1.349,2.514,2.514,0,0,1-1.165.881,5.514,5.514,0,0,1-2.037.312h-2.827v4.111Zm3.194-6.534h1.6a5.689,5.689,0,0,0,1.037-.073,1.022,1.022,0,0,0,.56-.266,1,1,0,0,0,.238-.55,6.449,6.449,0,0,0,.055-.945,7.993,7.993,0,0,0-.046-.954.832.832,0,0,0-.78-.817,6.125,6.125,0,0,0-1.009-.064h-1.652Z" transform="translate(-195.482 -347.115)"/><path class="a" d="M230.461,359.809a14.516,14.516,0,0,1-2.615-.193,3.776,3.776,0,0,1-1.588-.624,2.483,2.483,0,0,1-.835-1.175,6.705,6.705,0,0,1-.33-1.845q-.064-1.1-.064-2.624t.064-2.625a6.7,6.7,0,0,1,.33-1.844,2.481,2.481,0,0,1,.835-1.175,3.78,3.78,0,0,1,1.588-.624,17.71,17.71,0,0,1,5.212,0,3.943,3.943,0,0,1,1.606.624,2.38,2.38,0,0,1,.844,1.175,7.175,7.175,0,0,1,.331,1.844q.073,1.1.073,2.625t-.073,2.624a7.176,7.176,0,0,1-.331,1.845,2.381,2.381,0,0,1-.844,1.175,3.938,3.938,0,0,1-1.606.624A14.389,14.389,0,0,1,230.461,359.809Zm0-2.46a10.1,10.1,0,0,0,1.074-.046,1.232,1.232,0,0,0,.652-.238,1.128,1.128,0,0,0,.349-.615,5.707,5.707,0,0,0,.138-1.174q.028-.753.027-1.927t-.027-1.927a5.711,5.711,0,0,0-.138-1.174,1.129,1.129,0,0,0-.349-.615,1.235,1.235,0,0,0-.652-.238,12.463,12.463,0,0,0-2.138,0,1.249,1.249,0,0,0-.661.238,1.127,1.127,0,0,0-.348.615,5.685,5.685,0,0,0-.138,1.174q-.028.753-.027,1.927t.027,1.927a5.681,5.681,0,0,0,.138,1.174,1.125,1.125,0,0,0,.348.615,1.246,1.246,0,0,0,.661.238A10.149,10.149,0,0,0,230.461,357.349Z" transform="translate(-213.429 -346.888)"/><path class="a" d="M258.875,359.889V347.262h3.194V357.32h4.919v2.569Z" transform="translate(-233.988 -347.115)"/><path class="a" d="M284.167,359.889V347.262h3.193v12.627Z" transform="translate(-249.351 -347.115)"/><path class="a" d="M300.192,359.889V349.831h-3.45v-2.569h10.113v2.569h-3.468v10.058Z" transform="translate(-256.989 -347.115)"/><path class="a" d="M326.9,359.889V347.262h8.846v2.46h-5.653v2.587h4.79v2.423h-4.79v2.7h5.653v2.46Z" transform="translate(-275.305 -347.115)"/><path class="a" d="M360.07,359.809a12.347,12.347,0,0,1-2.386-.193,3.866,3.866,0,0,1-1.551-.633,2.7,2.7,0,0,1-.9-1.175,6.586,6.586,0,0,1-.413-1.835q-.11-1.1-.11-2.624t.11-2.625a6.59,6.59,0,0,1,.413-1.835,2.706,2.706,0,0,1,.9-1.175,3.871,3.871,0,0,1,1.551-.633,12.347,12.347,0,0,1,2.386-.193q.551,0,1.138.037t1.138.11a6.639,6.639,0,0,1,.936.184v2.294l-1.037-.1q-.468-.046-.817-.055t-.587-.009a12.18,12.18,0,0,0-1.385.064,1.849,1.849,0,0,0-.853.284,1.267,1.267,0,0,0-.459.652,4.579,4.579,0,0,0-.192,1.157q-.047.725-.046,1.844,0,1.1.046,1.835a4.742,4.742,0,0,0,.192,1.175,1.215,1.215,0,0,0,.459.651,1.917,1.917,0,0,0,.853.276,12.088,12.088,0,0,0,1.385.064q.569,0,1.285-.046t1.23-.119v2.35q-.4.074-.973.137t-1.165.1Q360.62,359.809,360.07,359.809Z" transform="translate(-292.2 -346.888)"/><path class="a" d="M382.34,359.889V347.262h3.193v4.955h4.093v-4.955h3.193v12.627h-3.193v-5.011h-4.093v5.011Z" transform="translate(-308.983 -347.115)"/><path class="a" d="M415.906,359.889V347.262h3.285l4.112,6.772h.091v-6.772h3.065v12.627h-2.991l-4.405-7.4h-.091v7.4Z" transform="translate(-329.371 -347.115)"/><path class="a" d="M449.66,359.889V347.262h3.194v12.627Z" transform="translate(-349.874 -347.115)"/><path class="a" d="M464.713,359.889V347.262h3.193v4.992h.936l3.45-4.992h3.45l-4.313,6,4.368,6.626H472.22l-3.377-5.212h-.936v5.212Z" transform="translate(-359.018 -347.115)"/><path class="a" d="M493.977,359.889l4-12.627h4.35l4.019,12.627h-3.23l-.753-2.478h-4.5l-.734,2.478Zm4.57-4.882h3.12l-1.505-4.992h-.128Z" transform="translate(-376.793 -347.115)"/></g><g transform="translate(-10050.487 -7871.374)"><path class="a" d="M236.575,410.167V397.54h6.368a5.039,5.039,0,0,1,2.01.349,2.436,2.436,0,0,1,1.193,1.055,3.6,3.6,0,0,1,.395,1.771,4.078,4.078,0,0,1-.238,1.486,2.138,2.138,0,0,1-.725.964,3.237,3.237,0,0,1-1.239.523v.074a3.554,3.554,0,0,1,1.312.514,2.032,2.032,0,0,1,.743.964,4.389,4.389,0,0,1,.239,1.569,4.775,4.775,0,0,1-.193,1.413,2.512,2.512,0,0,1-.624,1.055,2.8,2.8,0,0,1-1.138.661,5.669,5.669,0,0,1-1.734.229Zm3.175-7.488h2.019a3.121,3.121,0,0,0,.973-.119.787.787,0,0,0,.486-.413,1.992,1.992,0,0,0,.137-.826,2.407,2.407,0,0,0-.119-.862.694.694,0,0,0-.459-.4,3.524,3.524,0,0,0-1.019-.11H239.75Zm0,5.1h2.074a3.262,3.262,0,0,0,1.009-.12.747.747,0,0,0,.477-.431,2.4,2.4,0,0,0,.128-.881,2.468,2.468,0,0,0-.128-.9.751.751,0,0,0-.487-.431,3.3,3.3,0,0,0-1-.119H239.75Z" transform="translate(-236.575 -397.393)"/><path class="a" d="M269.109,410.167v-4.331l-4.2-8.3h3.285l2.514,5.3h.128l2.478-5.3h3.212l-4.221,8.3v4.331Z" transform="translate(-253.784 -397.393)"/><path class="a" d="M298.145,410.167V397.54h4.423a17.632,17.632,0,0,1,2.753.175,4.15,4.15,0,0,1,1.67.587,2.293,2.293,0,0,1,.872,1.138,6.626,6.626,0,0,1,.34,1.808q.073,1.083.073,2.606t-.073,2.606a6.617,6.617,0,0,1-.34,1.807,2.292,2.292,0,0,1-.872,1.138,4.162,4.162,0,0,1-1.67.587,17.594,17.594,0,0,1-2.753.174Zm3.194-2.459h1.156q.752,0,1.23-.046a1.777,1.777,0,0,0,.762-.22.966.966,0,0,0,.4-.587,4.95,4.95,0,0,0,.147-1.138q.027-.724.027-1.863t-.027-1.863a4.582,4.582,0,0,0-.156-1.138,1.066,1.066,0,0,0-.4-.6,1.57,1.57,0,0,0-.753-.22q-.478-.037-1.23-.037h-1.156Z" transform="translate(-273.974 -397.393)"/><path class="a" d="M334.961,410.087a13.148,13.148,0,0,1-2.386-.183,4.293,4.293,0,0,1-1.615-.615,2.887,2.887,0,0,1-1-1.175,5.967,5.967,0,0,1-.5-1.844,25.419,25.419,0,0,1,0-5.286,5.786,5.786,0,0,1,.5-1.844,2.965,2.965,0,0,1,1.009-1.175,4.308,4.308,0,0,1,1.615-.614,12.987,12.987,0,0,1,2.367-.184q.624,0,1.395.055t1.532.147q.761.092,1.423.22v2.294q-.624-.091-1.239-.137l-1.129-.082q-.514-.037-.844-.037-.99,0-1.634.037a2.809,2.809,0,0,0-1.046.229,1.258,1.258,0,0,0-.606.615,3.49,3.49,0,0,0-.266,1.184q-.065.762-.065,1.936,0,1.046.046,1.762a4.655,4.655,0,0,0,.2,1.175,1.427,1.427,0,0,0,1.193,1.046,6.075,6.075,0,0,0,1.147.092q.22,0,.477-.009c.172-.006.336-.015.5-.028s.294-.018.4-.018v-2.735h-1.8v-2.294h4.717v7.066q-.661.128-1.45.211t-1.56.138Q335.585,410.086,334.961,410.087Z" transform="translate(-292.914 -397.166)"/><path class="a" d="M366.175,410.087a14.524,14.524,0,0,1-2.615-.193,3.771,3.771,0,0,1-1.587-.624,2.482,2.482,0,0,1-.835-1.175,6.676,6.676,0,0,1-.33-1.844q-.065-1.1-.065-2.625t.065-2.624a6.679,6.679,0,0,1,.33-1.845,2.487,2.487,0,0,1,.835-1.175,3.786,3.786,0,0,1,1.587-.624,17.715,17.715,0,0,1,5.213,0,3.948,3.948,0,0,1,1.606.624,2.386,2.386,0,0,1,.844,1.175,7.2,7.2,0,0,1,.331,1.845q.073,1.1.073,2.624t-.073,2.625a7.191,7.191,0,0,1-.331,1.844,2.381,2.381,0,0,1-.844,1.175,3.932,3.932,0,0,1-1.606.624A14.4,14.4,0,0,1,366.175,410.087Zm0-2.459a9.993,9.993,0,0,0,1.074-.046,1.231,1.231,0,0,0,.651-.238,1.134,1.134,0,0,0,.349-.615,5.741,5.741,0,0,0,.137-1.175q.027-.753.027-1.927t-.027-1.927a5.748,5.748,0,0,0-.137-1.174,1.137,1.137,0,0,0-.349-.615,1.234,1.234,0,0,0-.651-.238,12.467,12.467,0,0,0-2.138,0,1.246,1.246,0,0,0-.661.238,1.134,1.134,0,0,0-.349.615,5.722,5.722,0,0,0-.137,1.174q-.028.753-.028,1.927t.028,1.927a5.716,5.716,0,0,0,.137,1.175,1.131,1.131,0,0,0,.349.615,1.243,1.243,0,0,0,.661.238A10.021,10.021,0,0,0,366.175,407.628Z" transform="translate(-311.996 -397.166)"/><path class="a" d="M398.5,410.087q-.734,0-1.587-.037t-1.67-.11q-.817-.073-1.459-.147v-2.367l1.367.11q.688.055,1.312.073t1.046.018a10.424,10.424,0,0,0,1.34-.064,1.935,1.935,0,0,0,.679-.193.791.791,0,0,0,.211-.275,1.143,1.143,0,0,0,.082-.349q.018-.2.018-.459a3.3,3.3,0,0,0-.046-.615.65.65,0,0,0-.183-.358.9.9,0,0,0-.413-.192,7.128,7.128,0,0,0-.716-.12l-2.588-.33a3.128,3.128,0,0,1-1.23-.376,2.085,2.085,0,0,1-.753-.761,3.371,3.371,0,0,1-.386-1.129,8.844,8.844,0,0,1-.11-1.459,4.533,4.533,0,0,1,.367-1.991,2.678,2.678,0,0,1,1.019-1.138,4.06,4.06,0,0,1,1.523-.523,13.124,13.124,0,0,1,1.9-.128q.734,0,1.524.046t1.487.129a10.17,10.17,0,0,1,1.156.192v2.312q-.459-.073-1.074-.119t-1.276-.073q-.661-.028-1.248-.027a11.054,11.054,0,0,0-1.138.046,1.845,1.845,0,0,0-.661.174.635.635,0,0,0-.321.386,2.383,2.383,0,0,0-.064.605,2.612,2.612,0,0,0,.073.707.5.5,0,0,0,.33.34,4.228,4.228,0,0,0,.789.165l2.514.294a5.318,5.318,0,0,1,.945.184,2.4,2.4,0,0,1,.789.4,2.076,2.076,0,0,1,.6.789,2.222,2.222,0,0,1,.2.578q.073.34.128.78a8.089,8.089,0,0,1,.055.991,6.489,6.489,0,0,1-.22,1.826,2.893,2.893,0,0,1-.624,1.175,2.7,2.7,0,0,1-.973.66,4.433,4.433,0,0,1-1.257.294Q399.275,410.087,398.5,410.087Z" transform="translate(-331.845 -397.166)"/><path class="a" d="M423.62,410.167V397.54h3.194v4.992h.936l3.45-4.992h3.45l-4.313,6,4.368,6.626h-3.579l-3.377-5.212h-.936v5.212Z" transform="translate(-350.189 -397.393)"/><path class="a" d="M452.886,410.167l4-12.627h4.35l4.019,12.627h-3.23l-.753-2.478h-4.5l-.734,2.478Zm4.57-4.882h3.12l-1.5-4.992h-.129Z" transform="translate(-367.966 -397.393)"/></g></g><path class="b" d="M271.178,124.363a13.7,13.7,0,0,0,2.243-7.5v-7.967a11.781,11.781,0,0,0-5.862-10.166L249.939,88.55V97.6h0l11.705,6.776-27.369,15.8V151.82l-11.76-6.79v.02l-7.811,4.51,23.485,13.559,29.682-17.17a13.748,13.748,0,0,0,6.812-11.845v-2.229A9.674,9.674,0,0,0,271.178,124.363ZM242.1,124.7l23.481-13.557v5.716a5.878,5.878,0,0,1-2.972,5.1L242.1,133.74Zm24.745,9.4a5.887,5.887,0,0,1-2.917,5.072L242.1,151.819V142.78l22.211-12.772a1.639,1.639,0,0,1,1.557.176,1.919,1.919,0,0,1,.977,1.691Zm-28.658-23.336a11.706,11.706,0,0,1,3.914.672v-8.082a19.572,19.572,0,0,0-18.618,32.092l6.991-4.036a11.761,11.761,0,0,1,7.713-20.646Zm-27.425,11.769a27.425,27.425,0,0,1,27.425-27.425,27.839,27.839,0,0,1,3.907.276V87.527a35.584,35.584,0,0,0-3.907-.217,35.227,35.227,0,0,0-28.411,56.054l6.805-3.929A27.217,27.217,0,0,1,210.764,122.537Z" transform="translate(-127.374 4.192)"/><g transform="translate(10012.822 8108.85)"><g transform="translate(-9850 -7977.409)"><path class="a" d="M112.018,443.069l-2.4-9.275h1.537l1.86,7.428h.068l2.036-7.428h1.591l2.062,7.428h.081l1.766-7.428h1.524l-2.4,9.275h-1.861l-1.969-7.024h-.054l-1.982,7.024Z" transform="translate(-109.618 -433.052)"/><path class="a" d="M147.534,449.57q-.391,0-.816-.02t-.809-.047q-.384-.028-.681-.067v-1.119c.324.009.6.018.843.027s.451.016.64.02.355.007.5.007a5.461,5.461,0,0,0,1.146-.095,1.133,1.133,0,0,0,.62-.324,1.12,1.12,0,0,0,.25-.627,8.806,8.806,0,0,0,.047-1V445.9h-.081a1.346,1.346,0,0,1-.4.506,1.865,1.865,0,0,1-.688.323,4.048,4.048,0,0,1-1.045.115,3.384,3.384,0,0,1-1.166-.168,1.424,1.424,0,0,1-.687-.5,1.927,1.927,0,0,1-.317-.829,7.345,7.345,0,0,1-.081-1.16v-4.273h1.429v3.708a9.471,9.471,0,0,0,.047,1.071,1.177,1.177,0,0,0,.2.586.721.721,0,0,0,.438.25,3.954,3.954,0,0,0,.776.06,2.269,2.269,0,0,0,.863-.135.949.949,0,0,0,.479-.4,1.694,1.694,0,0,0,.2-.674q.04-.4.04-.944v-3.518h1.443v6.067a11.3,11.3,0,0,1-.1,1.638,2.465,2.465,0,0,1-.418,1.112,1.821,1.821,0,0,1-.95.634A5.822,5.822,0,0,1,147.534,449.57Z" transform="translate(-131.018 -436.776)"/><path class="a" d="M166.563,442.026a3.468,3.468,0,0,1-1.159-.169,1.535,1.535,0,0,1-.755-.566,2.731,2.731,0,0,1-.411-1.086,9.565,9.565,0,0,1-.128-1.712,9.668,9.668,0,0,1,.128-1.726,2.794,2.794,0,0,1,.4-1.085,1.542,1.542,0,0,1,.734-.573,3.2,3.2,0,0,1,1.132-.176,4.616,4.616,0,0,1,.9.081,2.174,2.174,0,0,1,.721.276,1.394,1.394,0,0,1,.506.56h.094V431.9h1.429v10.017h-1.321l-.054-.9h-.081a1.476,1.476,0,0,1-.546.647,2.12,2.12,0,0,1-.762.29A4.818,4.818,0,0,1,166.563,442.026Zm.58-1.267a2.209,2.209,0,0,0,.924-.156.889.889,0,0,0,.465-.491,2.254,2.254,0,0,0,.169-.715q.034-.4.034-.944c0-.341-.011-.641-.034-.9a2.032,2.032,0,0,0-.155-.654.97.97,0,0,0-.479-.526,2.144,2.144,0,0,0-.924-.162,3.945,3.945,0,0,0-.856.074.759.759,0,0,0-.472.3,1.5,1.5,0,0,0-.209.674,13.792,13.792,0,0,0,0,2.44,1.5,1.5,0,0,0,.216.682.774.774,0,0,0,.479.3A3.815,3.815,0,0,0,167.142,440.759Z" transform="translate(-142.754 -431.901)"/><path class="a" d="M183.512,446.793v-1.106l3.694-4.57h-3.532v-1.2h5.379v1.105l-3.694,4.57h3.721v1.2Z" transform="translate(-154.553 -436.776)"/><path class="a" d="M201.572,433.316V431.9h1.5v1.415Zm.027,8.6v-6.876h1.429v6.876Z" transform="translate(-165.535 -431.901)"/><path class="a" d="M211.352,446.733a3.235,3.235,0,0,1-1.18-.189,1.37,1.37,0,0,1-.721-.627,2.471,2.471,0,0,1-.243-1.193,3.438,3.438,0,0,1,.188-1.261,1.194,1.194,0,0,1,.648-.667,3.281,3.281,0,0,1,1.294-.2q.135,0,.4.007l.607.014.687.013q.344.007.627.021v-.324a3.889,3.889,0,0,0-.067-.822.689.689,0,0,0-.276-.439,1.329,1.329,0,0,0-.6-.182q-.391-.04-1.011-.04c-.2,0-.429.006-.694.02s-.524.029-.776.047a4.844,4.844,0,0,0-.579.067v-1.133a10.037,10.037,0,0,1,1.213-.155q.66-.047,1.321-.047a7.35,7.35,0,0,1,1.288.094,2.422,2.422,0,0,1,.843.3,1.294,1.294,0,0,1,.485.526,2.565,2.565,0,0,1,.229.776,7.07,7.07,0,0,1,.068,1.031v4.26h-1.321l-.054-.89h-.081a1.6,1.6,0,0,1-.613.654,2.245,2.245,0,0,1-.829.283A6.318,6.318,0,0,1,211.352,446.733Zm.634-1.16a3.591,3.591,0,0,0,.613-.047,1.538,1.538,0,0,0,.485-.161.862.862,0,0,0,.33-.317,1.95,1.95,0,0,0,.182-.526,3.543,3.543,0,0,0,.06-.7v-.243h-1.968a2.651,2.651,0,0,0-.681.067.449.449,0,0,0-.317.283,2,2,0,0,0-.081.66,1.591,1.591,0,0,0,.094.627.539.539,0,0,0,.4.283A3.946,3.946,0,0,0,211.985,445.573Z" transform="translate(-170.179 -436.608)"/><path class="a" d="M228.092,441.918v-4.166l-.754.269v-1.146l.754-.269V431.9h1.443v4.179l.755-.283v1.174l-.755.269v4.678Z" transform="translate(-181.204 -431.901)"/><path class="a" d="M246.736,443.069v-7.941h-2.818v-1.334h7.145v1.334h-2.8v7.941Z" transform="translate(-191.286 -433.052)"/><path class="a" d="M264.968,446.733a7.691,7.691,0,0,1-1.456-.115,2.263,2.263,0,0,1-.93-.377,1.618,1.618,0,0,1-.526-.674,3.327,3.327,0,0,1-.229-1q-.054-.587-.054-1.369a11.72,11.72,0,0,1,.094-1.6,2.606,2.606,0,0,1,.391-1.112,1.693,1.693,0,0,1,.923-.641,5.632,5.632,0,0,1,1.679-.2,5.9,5.9,0,0,1,1.349.128,1.912,1.912,0,0,1,.829.4,1.577,1.577,0,0,1,.445.694,4.115,4.115,0,0,1,.181,1.011q.041.587.041,1.328v.459h-4.49a7.053,7.053,0,0,0,.054.977.974.974,0,0,0,.249.567,1.143,1.143,0,0,0,.62.269,7.069,7.069,0,0,0,1.153.074q.31,0,.681-.014c.247-.008.5-.027.761-.053s.495-.05.7-.067v1.118q-.3.055-.715.1t-.876.074Q265.385,446.733,264.968,446.733Zm1.361-3.843v-.256a4.958,4.958,0,0,0-.074-.964,1.123,1.123,0,0,0-.243-.54.842.842,0,0,0-.459-.243,3.578,3.578,0,0,0-.721-.06,3.9,3.9,0,0,0-.856.074.831.831,0,0,0-.479.276,1.2,1.2,0,0,0-.223.56,5.821,5.821,0,0,0-.061.937h3.357Z" transform="translate(-202.143 -436.608)"/><path class="a" d="M281.14,441.918V431.9h1.429v10.017Z" transform="translate(-213.921 -431.901)"/><path class="a" d="M292.213,446.733a7.69,7.69,0,0,1-1.456-.115,2.268,2.268,0,0,1-.93-.377,1.618,1.618,0,0,1-.526-.674,3.3,3.3,0,0,1-.229-1q-.054-.587-.054-1.369a11.655,11.655,0,0,1,.095-1.6,2.607,2.607,0,0,1,.391-1.112,1.693,1.693,0,0,1,.923-.641,5.633,5.633,0,0,1,1.678-.2,5.9,5.9,0,0,1,1.349.128,1.91,1.91,0,0,1,.829.4,1.57,1.57,0,0,1,.445.694,4.111,4.111,0,0,1,.182,1.011q.041.587.04,1.328v.459H290.46a7.067,7.067,0,0,0,.054.977.977.977,0,0,0,.249.567,1.143,1.143,0,0,0,.62.269,7.08,7.08,0,0,0,1.153.074q.31,0,.681-.014c.247-.008.5-.027.762-.053s.494-.05.7-.067v1.118q-.3.055-.715.1t-.876.074Q292.631,446.733,292.213,446.733Zm1.361-3.843v-.256a4.956,4.956,0,0,0-.074-.964,1.123,1.123,0,0,0-.243-.54.841.841,0,0,0-.459-.243,3.58,3.58,0,0,0-.722-.06,3.893,3.893,0,0,0-.856.074.832.832,0,0,0-.479.276,1.208,1.208,0,0,0-.223.56,5.823,5.823,0,0,0-.06.937h3.357Z" transform="translate(-218.711 -436.608)"/><path class="a" d="M308.386,441.918V431.9h1.429v5.959h.714l2.2-2.817H314.3l-2.629,3.317,2.67,3.559h-1.631l-2.184-2.858h-.714v2.858Z" transform="translate(-230.489 -431.901)"/><path class="a" d="M327.421,446.733a7.972,7.972,0,0,1-1.436-.108,2.284,2.284,0,0,1-.9-.344,1.373,1.373,0,0,1-.486-.641,3.659,3.659,0,0,1-.2-1.011c-.032-.4-.047-.89-.047-1.456s.016-1.038.047-1.443a3.658,3.658,0,0,1,.2-1.011,1.373,1.373,0,0,1,.486-.641,2.216,2.216,0,0,1,.9-.337,8.476,8.476,0,0,1,1.436-.1,8.573,8.573,0,0,1,1.449.1,2.214,2.214,0,0,1,.9.337,1.368,1.368,0,0,1,.485.641,3.655,3.655,0,0,1,.2,1.011q.047.608.047,1.443c0,.566-.016,1.052-.047,1.456a3.656,3.656,0,0,1-.2,1.011,1.368,1.368,0,0,1-.485.641,2.282,2.282,0,0,1-.9.344A8.064,8.064,0,0,1,327.421,446.733Zm0-1.2a4.309,4.309,0,0,0,.957-.081.712.712,0,0,0,.478-.323,1.687,1.687,0,0,0,.176-.715q.033-.472.033-1.24t-.033-1.234a1.672,1.672,0,0,0-.176-.708.691.691,0,0,0-.478-.316,4.7,4.7,0,0,0-.957-.074,4.6,4.6,0,0,0-.943.074.692.692,0,0,0-.479.316,1.674,1.674,0,0,0-.175.708q-.034.465-.034,1.234t.034,1.24a1.689,1.689,0,0,0,.175.715.713.713,0,0,0,.479.323A4.217,4.217,0,0,0,327.421,445.533Z" transform="translate(-240.195 -436.608)"/><path class="a" d="M344.3,446.625v-6.876h1.321l.04.917h.094a1.613,1.613,0,0,1,.411-.553,1.774,1.774,0,0,1,.661-.35,3.321,3.321,0,0,1,.964-.122,2.652,2.652,0,0,1,1.294.25,1.347,1.347,0,0,1,.607.776h.108a1.542,1.542,0,0,1,.424-.553,1.892,1.892,0,0,1,.688-.35,3.463,3.463,0,0,1,.977-.122,2.422,2.422,0,0,1,1.334.3,1.442,1.442,0,0,1,.593.9,6.328,6.328,0,0,1,.148,1.49v4.3h-1.429V442.89q0-.674-.04-1.071a1.358,1.358,0,0,0-.169-.593.583.583,0,0,0-.391-.249,3.484,3.484,0,0,0-.681-.055,1.886,1.886,0,0,0-.769.129.842.842,0,0,0-.418.39,1.873,1.873,0,0,0-.175.667c-.027.27-.041.593-.041.971v3.546h-1.429V442.89a9.575,9.575,0,0,0-.047-1.071,1.415,1.415,0,0,0-.175-.593.58.58,0,0,0-.384-.249,3.463,3.463,0,0,0-.688-.055,1.776,1.776,0,0,0-.755.135.919.919,0,0,0-.425.4,1.806,1.806,0,0,0-.182.674q-.041.411-.04.95v3.546Z" transform="translate(-252.328 -436.608)"/><path class="a" d="M376.17,446.9a3.383,3.383,0,0,1-1.166-.169,1.406,1.406,0,0,1-.688-.505,1.987,1.987,0,0,1-.317-.836,7.393,7.393,0,0,1-.081-1.173v-4.3h1.429v3.734a9.587,9.587,0,0,0,.047,1.071,1.218,1.218,0,0,0,.2.593.681.681,0,0,0,.439.25,4.419,4.419,0,0,0,.775.053,2.28,2.28,0,0,0,.863-.134.95.95,0,0,0,.478-.4,1.675,1.675,0,0,0,.2-.674q.041-.4.04-.944v-3.546h1.443v6.876H378.5l-.054-.917h-.094a1.539,1.539,0,0,1-.424.553,1.9,1.9,0,0,1-.708.35A3.922,3.922,0,0,1,376.17,446.9Z" transform="translate(-270.34 -436.776)"/><path class="a" d="M393.906,446.625v-6.876h1.321l.04.917h.108a1.612,1.612,0,0,1,.431-.56,1.879,1.879,0,0,1,.7-.344,3.919,3.919,0,0,1,1.051-.122,3.391,3.391,0,0,1,1.173.169,1.374,1.374,0,0,1,.674.506,2.121,2.121,0,0,1,.317.836,6.9,6.9,0,0,1,.087,1.173v4.3h-1.442V442.89a9.575,9.575,0,0,0-.047-1.071,1.219,1.219,0,0,0-.2-.593.68.68,0,0,0-.439-.249,4.4,4.4,0,0,0-.775-.055,2.234,2.234,0,0,0-.856.135.957.957,0,0,0-.472.4,1.752,1.752,0,0,0-.2.674,8.179,8.179,0,0,0-.047.943v3.546Z" transform="translate(-282.494 -436.608)"/><path class="a" d="M413.824,433.316V431.9h1.5v1.415Zm.027,8.6v-6.876h1.429v6.876Z" transform="translate(-294.606 -431.901)"/><path class="a" d="M422.458,441.918V431.9h1.429v5.959h.715l2.2-2.817h1.577l-2.629,3.317,2.67,3.559h-1.631L424.6,439.06h-.715v2.858Z" transform="translate(-299.856 -431.901)"/><path class="a" d="M441.87,446.733a3.239,3.239,0,0,1-1.18-.189,1.373,1.373,0,0,1-.721-.627,2.47,2.47,0,0,1-.243-1.193,3.427,3.427,0,0,1,.189-1.261,1.192,1.192,0,0,1,.647-.667,3.285,3.285,0,0,1,1.294-.2c.09,0,.223,0,.4.007l.606.014.688.013q.344.007.627.021v-.324a3.912,3.912,0,0,0-.067-.822.69.69,0,0,0-.276-.439,1.331,1.331,0,0,0-.6-.182q-.391-.04-1.011-.04c-.2,0-.429.006-.694.02s-.524.029-.775.047a4.86,4.86,0,0,0-.58.067v-1.133a10.065,10.065,0,0,1,1.213-.155q.661-.047,1.322-.047a7.353,7.353,0,0,1,1.287.094,2.414,2.414,0,0,1,.842.3,1.3,1.3,0,0,1,.486.526,2.612,2.612,0,0,1,.229.776,7.026,7.026,0,0,1,.067,1.031v4.26H444.3l-.054-.89h-.081a1.606,1.606,0,0,1-.614.654,2.24,2.24,0,0,1-.829.283A6.313,6.313,0,0,1,441.87,446.733Zm.633-1.16a3.593,3.593,0,0,0,.614-.047,1.541,1.541,0,0,0,.485-.161.865.865,0,0,0,.33-.317,1.964,1.964,0,0,0,.182-.526,3.544,3.544,0,0,0,.061-.7v-.243h-1.969a2.655,2.655,0,0,0-.681.067.449.449,0,0,0-.317.283,2,2,0,0,0-.081.66,1.6,1.6,0,0,0,.094.627.54.54,0,0,0,.4.283A3.951,3.951,0,0,0,442.5,445.573Z" transform="translate(-310.357 -436.608)"/><path class="a" d="M461.836,446.733a5.12,5.12,0,0,1-1.315-.141,2.033,2.033,0,0,1-.829-.418,1.642,1.642,0,0,1-.459-.7,4.02,4.02,0,0,1-.2-1q-.047-.573-.047-1.3c0-.477.018-.9.054-1.282a3.622,3.622,0,0,1,.222-.99,1.817,1.817,0,0,1,.479-.7,2.016,2.016,0,0,1,.809-.418,4.67,4.67,0,0,1,1.254-.142q.486,0,1.018.054a7.356,7.356,0,0,1,.883.136v1.132a7.309,7.309,0,0,0-.735-.087c-.292-.023-.559-.034-.8-.034a3.622,3.622,0,0,0-.923.094.884.884,0,0,0-.519.351,1.64,1.64,0,0,0-.236.714,9.32,9.32,0,0,0-.061,1.186,9.8,9.8,0,0,0,.061,1.214,1.506,1.506,0,0,0,.243.714.923.923,0,0,0,.532.331,4,4,0,0,0,.931.087q.337,0,.762-.033t.815-.087v1.132a7.788,7.788,0,0,1-.9.134Q462.335,446.732,461.836,446.733Z" transform="translate(-322.072 -436.608)"/><path class="a" d="M471.857,444.614v-1.106a3.72,3.72,0,0,0,.843-.067.442.442,0,0,0,.33-.229,1.129,1.129,0,0,0,.068-.431v-7.738h1.429v7.428a4.507,4.507,0,0,1-.122,1.173,1.109,1.109,0,0,1-.425.641,1.811,1.811,0,0,1-.822.269A11.469,11.469,0,0,1,471.857,444.614Zm1.213-11.3V431.9h1.5v1.415Z" transform="translate(-329.896 -431.901)"/><path class="a" d="M483.519,433.316V431.9h1.5v1.415Zm.027,8.6v-6.876h1.429v6.876Z" transform="translate(-336.987 -431.901)"/><path class="a" d="M491.053,456.808v-.647a1.676,1.676,0,0,0,.539-.067.4.4,0,0,0,.256-.256,1.739,1.739,0,0,0,.067-.553v-.229h-.634v-1.551H492.9v1.16a7.067,7.067,0,0,1-.067,1.071,1.4,1.4,0,0,1-.25.654.988.988,0,0,1-.553.324A4.112,4.112,0,0,1,491.053,456.808Z" transform="translate(-341.569 -445.038)"/></g><g transform="translate(-9850 -7960.47)"><path class="a" d="M87.31,486.29v-9.276h1.523v9.276Z" transform="translate(-87.31 -476.273)"/><path class="a" d="M96.529,489.847v-6.876H97.85l.04.917H98a1.625,1.625,0,0,1,.431-.56,1.9,1.9,0,0,1,.7-.343,3.922,3.922,0,0,1,1.051-.121,3.374,3.374,0,0,1,1.173.169,1.375,1.375,0,0,1,.674.505,2.125,2.125,0,0,1,.317.836,6.832,6.832,0,0,1,.088,1.173v4.3h-1.443v-3.734a9.585,9.585,0,0,0-.047-1.071,1.229,1.229,0,0,0-.2-.593.683.683,0,0,0-.438-.25,4.422,4.422,0,0,0-.775-.053,2.244,2.244,0,0,0-.856.134.954.954,0,0,0-.471.4,1.746,1.746,0,0,0-.2.674,8.277,8.277,0,0,0-.047.944v3.546Z" transform="translate(-92.916 -479.831)"/><path class="a" d="M115.985,485.16v-5.675h-1.362v-1.2h1.362v-.836a5.153,5.153,0,0,1,.094-1.085,1.422,1.422,0,0,1,.317-.667,1.306,1.306,0,0,1,.593-.357,3.952,3.952,0,0,1,.91-.149q.539-.034,1.267-.034v1.079q-.566,0-.91.034a1.5,1.5,0,0,0-.526.129.471.471,0,0,0-.243.289,1.755,1.755,0,0,0-.06.506v1.091h1.739v1.2h-1.739v5.675Z" transform="translate(-103.919 -475.144)"/><path class="a" d="M131.561,489.955a7.944,7.944,0,0,1-1.436-.108,2.259,2.259,0,0,1-.9-.344,1.358,1.358,0,0,1-.486-.64,3.636,3.636,0,0,1-.2-1.011q-.047-.607-.047-1.456t.047-1.442a3.633,3.633,0,0,1,.2-1.011,1.361,1.361,0,0,1,.486-.641,2.215,2.215,0,0,1,.9-.337,8.486,8.486,0,0,1,1.436-.1,8.588,8.588,0,0,1,1.45.1,2.217,2.217,0,0,1,.9.337,1.366,1.366,0,0,1,.486.641,3.648,3.648,0,0,1,.2,1.011q.047.606.047,1.442t-.047,1.456a3.651,3.651,0,0,1-.2,1.011,1.363,1.363,0,0,1-.486.64,2.261,2.261,0,0,1-.9.344A8.039,8.039,0,0,1,131.561,489.955Zm0-1.2a4.359,4.359,0,0,0,.957-.081.713.713,0,0,0,.478-.324,1.683,1.683,0,0,0,.176-.714q.034-.472.034-1.241t-.034-1.233a1.669,1.669,0,0,0-.176-.708.693.693,0,0,0-.478-.317,4.759,4.759,0,0,0-.957-.074,4.666,4.666,0,0,0-.944.074.7.7,0,0,0-.479.317,1.681,1.681,0,0,0-.175.708q-.034.465-.034,1.233t.034,1.241a1.7,1.7,0,0,0,.175.714.716.716,0,0,0,.479.324A4.273,4.273,0,0,0,131.561,488.755Z" transform="translate(-112.35 -479.831)"/><path class="a" d="M148.439,489.847v-6.876h1.308l.054,1.241h.108a1.973,1.973,0,0,1,.485-.836,1.634,1.634,0,0,1,.755-.405,4.359,4.359,0,0,1,1.011-.107v1.4a2.978,2.978,0,0,0-1.409.27,1.453,1.453,0,0,0-.688.856,4.943,4.943,0,0,0-.2,1.53v2.926Z" transform="translate(-124.483 -479.831)"/><path class="a" d="M160.995,489.847v-6.876h1.321l.04.917h.094a1.62,1.62,0,0,1,.411-.553,1.778,1.778,0,0,1,.661-.35,3.323,3.323,0,0,1,.964-.121,2.651,2.651,0,0,1,1.294.249,1.349,1.349,0,0,1,.606.775h.108a1.544,1.544,0,0,1,.425-.553,1.9,1.9,0,0,1,.687-.35,3.473,3.473,0,0,1,.978-.121,2.43,2.43,0,0,1,1.335.3,1.443,1.443,0,0,1,.593.9,6.361,6.361,0,0,1,.148,1.49v4.3h-1.429v-3.734q0-.674-.041-1.071a1.361,1.361,0,0,0-.168-.593.587.587,0,0,0-.391-.25,3.508,3.508,0,0,0-.682-.053,1.9,1.9,0,0,0-.768.128.845.845,0,0,0-.418.391,1.88,1.88,0,0,0-.175.667c-.027.269-.041.593-.041.97v3.546h-1.429v-3.734a9.589,9.589,0,0,0-.047-1.071,1.407,1.407,0,0,0-.176-.593.582.582,0,0,0-.384-.25,3.484,3.484,0,0,0-.687-.053,1.786,1.786,0,0,0-.756.134.917.917,0,0,0-.424.4,1.791,1.791,0,0,0-.182.674c-.027.275-.04.591-.04.95v3.546Z" transform="translate(-132.118 -479.831)"/><path class="a" d="M191.76,489.955a3.231,3.231,0,0,1-1.18-.188,1.378,1.378,0,0,1-.721-.627,2.478,2.478,0,0,1-.243-1.193,3.432,3.432,0,0,1,.189-1.261,1.2,1.2,0,0,1,.647-.667,3.3,3.3,0,0,1,1.294-.2q.135,0,.4.007l.607.013.687.014q.344.007.627.02v-.323a3.928,3.928,0,0,0-.067-.823.685.685,0,0,0-.277-.438,1.3,1.3,0,0,0-.6-.182q-.391-.04-1.011-.041-.3,0-.694.021c-.265.013-.524.029-.775.047a5.141,5.141,0,0,0-.58.067v-1.132a10.063,10.063,0,0,1,1.214-.156q.66-.047,1.321-.047a7.382,7.382,0,0,1,1.287.094,2.4,2.4,0,0,1,.843.3,1.3,1.3,0,0,1,.485.526,2.6,2.6,0,0,1,.229.775,7.1,7.1,0,0,1,.067,1.031v4.26h-1.321l-.054-.889h-.081a1.6,1.6,0,0,1-.614.654,2.236,2.236,0,0,1-.829.283A6.232,6.232,0,0,1,191.76,489.955Zm.634-1.16a3.683,3.683,0,0,0,.614-.047,1.546,1.546,0,0,0,.485-.162.85.85,0,0,0,.33-.317,1.953,1.953,0,0,0,.182-.525,3.552,3.552,0,0,0,.061-.7V486.8H192.1a2.622,2.622,0,0,0-.681.067.448.448,0,0,0-.317.283,2.005,2.005,0,0,0-.081.661,1.6,1.6,0,0,0,.094.627.542.542,0,0,0,.4.283A4,4,0,0,0,192.394,488.8Z" transform="translate(-149.523 -479.831)"/><path class="a" d="M208.846,486.918v-5.676h-1.375v-1.2h1.375v-1.994h1.429v1.994h1.6v1.2h-1.6v5.676Z" transform="translate(-160.38 -476.902)"/><path class="a" d="M224.471,492.791q-.391,0-.816-.021c-.283-.013-.553-.029-.809-.047s-.483-.04-.681-.068v-1.118c.323.008.6.018.842.027s.452.015.64.02.355.007.5.007a5.437,5.437,0,0,0,1.146-.094,1.136,1.136,0,0,0,.62-.324,1.124,1.124,0,0,0,.249-.627,8.815,8.815,0,0,0,.047-1v-.418h-.081a1.354,1.354,0,0,1-.4.505,1.886,1.886,0,0,1-.687.324,4.072,4.072,0,0,1-1.045.115,3.4,3.4,0,0,1-1.166-.169,1.428,1.428,0,0,1-.688-.5,1.949,1.949,0,0,1-.317-.829,7.362,7.362,0,0,1-.081-1.16v-4.274h1.429v3.708a9.49,9.49,0,0,0,.047,1.072,1.18,1.18,0,0,0,.2.587.719.719,0,0,0,.438.249,3.943,3.943,0,0,0,.775.061,2.289,2.289,0,0,0,.863-.135.955.955,0,0,0,.479-.4,1.684,1.684,0,0,0,.2-.674q.04-.4.04-.943v-3.52h1.443V489.2a11.358,11.358,0,0,1-.1,1.638,2.473,2.473,0,0,1-.418,1.113,1.824,1.824,0,0,1-.951.633A5.8,5.8,0,0,1,224.471,492.791Z" transform="translate(-169.061 -479.997)"/><path class="a" d="M241.734,485.14V475.124h1.429v5.959h.714l2.2-2.819h1.577l-2.629,3.317,2.669,3.559h-1.631l-2.184-2.858h-.714v2.858Z" transform="translate(-181.215 -475.124)"/><path class="a" d="M259.932,476.539v-1.415h1.5v1.415Zm.027,8.6v-6.876h1.429v6.876Z" transform="translate(-192.282 -475.124)"/><path class="a" d="M276.272,476.539v-1.415h1.5v1.415Zm.027,8.6v-6.876h1.429v6.876Z" transform="translate(-202.218 -475.124)"/><path class="a" d="M293.128,486.29v-9.276H299.3v1.294h-4.651v2.656h4.018v1.294h-4.018V485H299.3v1.294Z" transform="translate(-212.468 -476.273)"/><path class="a" d="M313.011,485.14V475.124h1.429V485.14Z" transform="translate(-224.559 -475.124)"/><path class="a" d="M324.084,489.955a7.7,7.7,0,0,1-1.456-.115,2.267,2.267,0,0,1-.93-.377,1.619,1.619,0,0,1-.525-.674,3.3,3.3,0,0,1-.229-1q-.054-.587-.054-1.368a11.749,11.749,0,0,1,.094-1.6,2.6,2.6,0,0,1,.391-1.112,1.693,1.693,0,0,1,.924-.64,5.633,5.633,0,0,1,1.678-.2,5.826,5.826,0,0,1,1.348.128,1.921,1.921,0,0,1,.83.4,1.576,1.576,0,0,1,.444.695,4.086,4.086,0,0,1,.182,1.011q.041.586.04,1.327v.458h-4.489a7.128,7.128,0,0,0,.054.977.971.971,0,0,0,.25.566,1.136,1.136,0,0,0,.62.27,6.992,6.992,0,0,0,1.153.074q.31,0,.681-.013t.761-.054q.391-.04.7-.067v1.119q-.3.054-.714.1t-.876.074Q324.5,489.954,324.084,489.955Zm1.362-3.843v-.255a4.988,4.988,0,0,0-.074-.964,1.116,1.116,0,0,0-.243-.539.835.835,0,0,0-.459-.243,3.577,3.577,0,0,0-.721-.061,3.948,3.948,0,0,0-.856.074.833.833,0,0,0-.479.276,1.207,1.207,0,0,0-.222.56,5.787,5.787,0,0,0-.061.937h3.357Z" transform="translate(-229.35 -479.831)"/><path class="a" d="M340.257,485.14V475.124h1.429v5.959h.714l2.2-2.819h1.578l-2.629,3.317,2.669,3.559h-1.631l-2.184-2.858h-.714v2.858Z" transform="translate(-241.127 -475.124)"/><path class="a" d="M356.94,486.918v-5.676h-1.375v-1.2h1.375v-1.994h1.429v1.994h1.6v1.2h-1.6v5.676Z" transform="translate(-250.436 -476.902)"/><path class="a" d="M369.841,489.847v-6.876h1.308l.054,1.241h.108a1.965,1.965,0,0,1,.485-.836,1.636,1.636,0,0,1,.755-.405,4.362,4.362,0,0,1,1.011-.107v1.4a2.976,2.976,0,0,0-1.408.27,1.453,1.453,0,0,0-.687.856,4.943,4.943,0,0,0-.2,1.53v2.926Z" transform="translate(-259.117 -479.831)"/><path class="a" d="M384.611,489.955a7.936,7.936,0,0,1-1.436-.108,2.261,2.261,0,0,1-.9-.344,1.363,1.363,0,0,1-.486-.64,3.636,3.636,0,0,1-.2-1.011q-.048-.607-.047-1.456t.047-1.442a3.633,3.633,0,0,1,.2-1.011,1.366,1.366,0,0,1,.486-.641,2.216,2.216,0,0,1,.9-.337,8.478,8.478,0,0,1,1.436-.1,8.585,8.585,0,0,1,1.45.1,2.219,2.219,0,0,1,.9.337,1.363,1.363,0,0,1,.485.641,3.635,3.635,0,0,1,.2,1.011q.047.606.047,1.442t-.047,1.456a3.639,3.639,0,0,1-.2,1.011,1.36,1.36,0,0,1-.485.64,2.263,2.263,0,0,1-.9.344A8.037,8.037,0,0,1,384.611,489.955Zm0-1.2a4.365,4.365,0,0,0,.958-.081.713.713,0,0,0,.478-.324,1.688,1.688,0,0,0,.176-.714q.033-.472.033-1.241t-.033-1.233a1.674,1.674,0,0,0-.176-.708.693.693,0,0,0-.478-.317,4.766,4.766,0,0,0-.958-.074,4.664,4.664,0,0,0-.943.074.694.694,0,0,0-.479.317,1.674,1.674,0,0,0-.175.708q-.034.465-.034,1.233t.034,1.241a1.688,1.688,0,0,0,.175.714.715.715,0,0,0,.479.324A4.272,4.272,0,0,0,384.611,488.755Z" transform="translate(-266.23 -479.831)"/><path class="a" d="M400.767,486.918v-5.676h-1.375v-1.2h1.375v-1.994H402.2v1.994h1.6v1.2h-1.6v5.676Z" transform="translate(-277.087 -476.902)"/><path class="a" d="M416,489.955a7.7,7.7,0,0,1-1.456-.115,2.262,2.262,0,0,1-.93-.377,1.617,1.617,0,0,1-.526-.674,3.323,3.323,0,0,1-.229-1q-.054-.587-.054-1.368a11.739,11.739,0,0,1,.094-1.6,2.608,2.608,0,0,1,.391-1.112,1.7,1.7,0,0,1,.924-.64,5.633,5.633,0,0,1,1.678-.2,5.828,5.828,0,0,1,1.348.128,1.918,1.918,0,0,1,.829.4,1.577,1.577,0,0,1,.445.695,4.09,4.09,0,0,1,.182,1.011q.041.586.041,1.327v.458h-4.489a7.074,7.074,0,0,0,.053.977.976.976,0,0,0,.25.566,1.136,1.136,0,0,0,.62.27,6.984,6.984,0,0,0,1.152.074q.31,0,.682-.013t.761-.054q.391-.04.7-.067v1.119q-.3.054-.715.1t-.876.074Q416.421,489.954,416,489.955Zm1.362-3.843v-.255a4.956,4.956,0,0,0-.074-.964,1.112,1.112,0,0,0-.243-.539.836.836,0,0,0-.458-.243,3.584,3.584,0,0,0-.721-.061,3.944,3.944,0,0,0-.856.074.832.832,0,0,0-.479.276,1.212,1.212,0,0,0-.223.56,5.8,5.8,0,0,0-.06.937h3.357Z" transform="translate(-285.246 -479.831)"/><path class="a" d="M434.332,489.955a5.062,5.062,0,0,1-1.314-.142,2.017,2.017,0,0,1-.829-.418,1.64,1.64,0,0,1-.459-.7,4.047,4.047,0,0,1-.2-1q-.048-.573-.047-1.3t.054-1.281a3.618,3.618,0,0,1,.223-.991,1.824,1.824,0,0,1,.479-.7,2.046,2.046,0,0,1,.809-.418,4.69,4.69,0,0,1,1.254-.141,10.1,10.1,0,0,1,1.018.054,7.4,7.4,0,0,1,.883.134v1.133q-.3-.054-.735-.088c-.292-.022-.56-.034-.8-.034a3.629,3.629,0,0,0-.924.094.891.891,0,0,0-.519.35,1.655,1.655,0,0,0-.236.715,9.33,9.33,0,0,0-.061,1.187,9.793,9.793,0,0,0,.061,1.213,1.514,1.514,0,0,0,.243.715.915.915,0,0,0,.533.33,3.951,3.951,0,0,0,.93.088q.337,0,.762-.034t.815-.088v1.133a7.946,7.946,0,0,1-.9.135Q434.831,489.954,434.332,489.955Z" transform="translate(-296.605 -479.831)"/><path class="a" d="M447.519,485.14V475.124h1.429v3.99h.094a1.564,1.564,0,0,1,.431-.519,1.871,1.871,0,0,1,.681-.317,4.008,4.008,0,0,1,1-.108,3.575,3.575,0,0,1,1.18.162,1.335,1.335,0,0,1,.68.5,2.125,2.125,0,0,1,.317.836,6.876,6.876,0,0,1,.087,1.173v4.3h-1.442v-3.734a9.479,9.479,0,0,0-.047-1.071,1.229,1.229,0,0,0-.2-.593.683.683,0,0,0-.438-.25,4.413,4.413,0,0,0-.775-.053,2.244,2.244,0,0,0-.857.134.953.953,0,0,0-.471.4,1.751,1.751,0,0,0-.2.674,8.267,8.267,0,0,0-.047.944v3.546Z" transform="translate(-306.353 -475.124)"/><path class="a" d="M467.505,489.847v-6.876h1.321l.041.917h.108a1.636,1.636,0,0,1,.431-.56,1.9,1.9,0,0,1,.7-.343,3.92,3.92,0,0,1,1.051-.121,3.376,3.376,0,0,1,1.173.169,1.377,1.377,0,0,1,.674.505,2.132,2.132,0,0,1,.317.836,6.916,6.916,0,0,1,.088,1.173v4.3h-1.443v-3.734a9.589,9.589,0,0,0-.047-1.071,1.23,1.23,0,0,0-.2-.593.682.682,0,0,0-.438-.25,4.433,4.433,0,0,0-.776-.053,2.243,2.243,0,0,0-.856.134.956.956,0,0,0-.472.4,1.759,1.759,0,0,0-.2.674,8.175,8.175,0,0,0-.047.944v3.546Z" transform="translate(-318.507 -479.831)"/><path class="a" d="M487.423,476.539v-1.415h1.5v1.415Zm.027,8.6v-6.876h1.429v6.876Z" transform="translate(-330.619 -475.124)"/><path class="a" d="M496.058,485.14V475.124h1.429v5.959h.715l2.2-2.819h1.577l-2.629,3.317,2.67,3.559h-1.631l-2.184-2.858h-.715v2.858Z" transform="translate(-335.87 -475.124)"/><path class="a" d="M514.255,476.539v-1.415h1.5v1.415Zm.027,8.6v-6.876h1.429v6.876Z" transform="translate(-346.936 -475.124)"/></g></g></g></svg>